<!DOCTYPE svg PUBLIC "-//W3C//DTD SVG 1.1//EN" "http://www.w3.org/Graphics/SVG/1.1/DTD/svg11.dtd">
<!-- Uploaded to: SVG Repo, www.svgrepo.com, Transformed by: SVG Repo Mixer Tools -->
<svg width="64px" height="64px" viewBox="0 0 1024 1024" xmlns="http://www.w3.org/2000/svg" fill="#292929" stroke="#292929">
<g id="SVGRepo_bgCarrier" stroke-width="0"/>
<g id="SVGRepo_tracerCarrier" stroke-linecap="round" stroke-linejoin="round"/>
<g id="SVGRepo_iconCarrier">
<path fill="#292929" d="M512 64a448 448 0 1 1 0 896 448 448 0 0 1 0-896zm0 393.664L407.936 353.6a38.4 38.4 0 1 0-54.336 54.336L457.664 512 353.6 616.064a38.4 38.4 0 1 0 54.336 54.336L512 566.336 616.064 670.4a38.4 38.4 0 1 0 54.336-54.336L566.336 512 670.4 407.936a38.4 38.4 0 1 0-54.336-54.336L512 457.664z"/>
</g>
</svg>