<svg xmlns="http://www.w3.org/2000/svg" width="1010" height="1010" viewBox="0 0 1010 1010">
<g>
<path d="M 517.00,924.32 L 514.11,924.15 L 508.07,923.68 L 505.01,923.42 L 498.70,922.76 L 492.34,922.07 L 479.17,920.17 L 472.57,919.16 L 459.44,916.70 L 456.19,916.06 L 449.81,914.69 L 440.50,912.51 L 432.96,910.64 L 418.09,906.24 L 410.68,903.93 L 396.10,898.67 L 388.85,895.93 L 374.59,889.83 L 367.51,886.67 L 353.62,879.77 L 346.72,876.22 L 333.23,868.54 L 326.54,864.61 L 313.49,856.19 L 307.02,851.89 L 294.45,842.76 L 288.23,838.10 L 276.17,828.29 L 270.21,823.30 L 258.70,812.84 L 253.02,807.53 L 242.10,796.46 L 236.71,790.84 L 226.41,779.17 L 221.35,773.27 L 211.71,761.05 L 206.98,754.87 L 198.04,742.12 L 193.66,735.68 L 185.46,722.43 L 181.45,715.75 L 174.02,702.04 L 163.78,680.99 L 162.88,679.00 L 161.08,674.91 L 160.19,672.88 L 158.55,669.06 L 157.76,667.22 L 156.47,664.10 L 156.18,663.39 L 155.69,662.17 L 155.13,660.71 L 154.54,659.12 L 153.73,655.79 L 153.39,654.14 L 153.08,651.08 L 153.04,650.36 L 153.05,649.05 L 153.08,648.43 L 153.23,647.36 L 153.32,646.86 L 153.62,646.10 L 154.22,645.36 L 154.30,645.31 L 155.21,645.22 L 155.77,645.17 L 157.56,645.09 L 158.56,645.06 L 161.14,644.99 L 162.51,644.96 L 165.77,644.91 L 167.47,644.89 L 171.31,644.86 L 173.29,644.85 L 177.60,644.84 L 179.80,644.84 L 184.48,644.85 L 191.81,644.89 L 228.19,645.17 L 230.59,642.91 L 231.37,642.18 L 232.33,640.71 L 232.70,639.94 L 232.84,638.07 L 232.82,637.55 L 232.63,636.37 L 232.51,635.75 L 232.11,634.31 L 231.88,633.55 L 231.27,631.81 L 230.11,628.78 L 229.10,626.22 L 227.12,620.80 L 226.14,618.05 L 224.25,612.27 L 223.31,609.34 L 221.51,603.26 L 220.62,600.19 L 218.93,593.88 L 217.27,587.52 L 214.36,574.37 L 210.74,554.50 L 210.50,552.95 L 210.09,550.10 L 209.90,548.70 L 209.58,545.96 L 209.44,544.57 L 209.20,541.68 L 209.09,540.19 L 208.92,536.89 L 208.85,535.17 L 208.73,531.21 L 208.68,529.12 L 208.62,524.25 L 208.60,522.97 L 208.58,520.18 L 208.57,518.75 L 208.56,515.64 L 208.55,514.05 L 208.54,510.60 L 208.53,505.00 L 208.53,502.99 L 208.53,499.29 L 208.53,497.49 L 208.54,494.17 L 208.54,492.55 L 208.55,489.58 L 208.56,488.14 L 208.58,485.48 L 208.61,482.89 L 208.69,478.52 L 208.74,476.44 L 208.88,472.86 L 208.95,471.14 L 209.16,468.08 L 209.27,466.59 L 209.56,463.78 L 209.72,462.37 L 210.10,459.52 L 210.79,454.88 L 211.30,451.63 L 212.51,444.88 L 213.15,441.47 L 214.59,434.55 L 216.07,427.61 L 219.52,413.97 L 220.40,410.64 L 222.23,404.25 L 223.15,401.12 L 225.02,395.26 L 225.96,392.41 L 227.82,387.25 L 230.55,380.49 L 231.28,378.84 L 232.23,376.02 L 232.62,374.68 L 232.89,372.44 L 232.94,371.39 L 232.53,369.68 L 231.17,367.65 L 230.97,367.47 L 230.39,367.16 L 230.05,367.01 L 229.06,366.77 L 228.49,366.66 L 226.88,366.48 L 225.97,366.40 L 223.53,366.27 L 222.86,366.24 L 221.33,366.20 L 220.53,366.17 L 218.72,366.13 L 217.78,366.12 L 215.66,366.09 L 214.57,366.07 L 212.13,366.05 L 210.86,366.04 L 208.07,366.03 L 206.62,366.02 L 203.45,366.01 L 201.81,366.01 L 198.23,366.00 L 192.37,366.00 L 190.66,366.00 L 187.43,366.00 L 185.85,365.99 L 182.89,365.98 L 180.00,365.97 L 174.96,365.94 L 172.57,365.92 L 168.48,365.85 L 166.55,365.82 L 163.34,365.73 L 161.84,365.69 L 159.44,365.57 L 158.34,365.51 L 156.68,365.36 L 155.94,365.29 L 154.97,365.11 L 154.20,364.80 L 153.96,364.56 L 153.59,363.79 L 153.42,363.36 L 153.20,362.26 L 153.11,361.68 L 153.04,360.33 L 153.03,359.63 L 153.10,358.08 L 153.21,356.50 L 153.84,353.00 L 155.37,347.77 L 155.53,347.34 L 155.98,346.23 L 156.21,345.63 L 156.79,344.23 L 157.39,342.77 L 158.89,339.24 L 159.67,337.40 L 161.39,333.44 L 164.02,327.52 L 166.22,322.61 L 170.97,312.90 L 173.39,308.06 L 178.57,298.52 L 181.21,293.77 L 186.80,284.41 L 189.65,279.75 L 195.65,270.59 L 198.69,266.04 L 205.07,257.10 L 208.31,252.66 L 215.06,243.95 L 218.48,239.63 L 225.59,231.17 L 229.18,226.97 L 236.63,218.78 L 240.39,214.72 L 248.16,206.82 L 252.08,202.90 L 260.15,195.30 L 264.23,191.54 L 272.60,184.25 L 276.82,180.65 L 285.46,173.70 L 289.82,170.27 L 298.72,163.67 L 303.21,160.41 L 312.36,154.18 L 316.96,151.11 L 326.35,145.26 L 340.66,136.95 L 345.27,134.40 L 354.57,129.58 L 359.23,127.22 L 368.65,122.78 L 373.37,120.61 L 382.91,116.55 L 387.69,114.57 L 397.35,110.89 L 402.19,109.10 L 411.97,105.80 L 416.87,104.20 L 426.78,101.27 L 431.74,99.86 L 441.77,97.31 L 446.80,96.09 L 456.95,93.92 L 462.04,92.88 L 472.33,91.09 L 477.48,90.24 L 487.89,88.83 L 493.12,88.17 L 503.66,87.13 L 508.95,86.66 L 519.62,86.00 L 524.98,85.71 L 535.78,85.43 L 541.21,85.33 L 552.15,85.42 L 557.64,85.51 L 568.72,85.97 L 585.50,87.09 L 593.31,87.74 L 608.97,89.80 L 616.81,90.95 L 632.46,94.00 L 640.28,95.65 L 655.85,99.67 L 663.61,101.80 L 679.01,106.76 L 686.68,109.36 L 701.84,115.23 L 709.38,118.28 L 724.22,125.05 L 731.59,128.54 L 746.02,136.16 L 767.13,148.54 L 770.47,150.64 L 776.94,154.87 L 780.14,157.01 L 786.39,161.36 L 792.60,165.76 L 804.65,175.12 L 807.65,177.53 L 813.64,182.55 L 816.64,185.11 L 822.67,190.46 L 825.70,193.18 L 831.85,198.91 L 841.26,207.99 L 858.02,224.50 L 858.01,229.56 L 858.00,234.63 L 826.25,264.12 L 825.16,265.14 L 822.73,267.39 L 821.48,268.55 L 818.76,271.08 L 817.36,272.37 L 814.37,275.15 L 812.85,276.57 L 809.62,279.56 L 807.98,281.09 L 804.55,284.28 L 802.80,285.89 L 799.19,289.25 L 795.54,292.64 L 787.82,299.80 L 783.91,303.43 L 775.86,310.90 L 771.81,314.65 L 763.67,322.21 L 759.60,325.98 L 751.60,333.40 L 740.00,344.16 L 736.25,347.63 L 728.80,354.55 L 725.09,357.98 L 717.85,364.70 L 714.28,368.01 L 707.44,374.36 L 704.09,377.47 L 697.84,383.27 L 696.32,384.68 L 693.42,387.37 L 692.00,388.69 L 689.32,391.18 L 688.00,392.40 L 685.55,394.68 L 684.35,395.79 L 682.15,397.83 L 681.09,398.82 L 679.17,400.61 L 678.24,401.46 L 676.62,402.97 L 675.85,403.69 L 674.56,404.89 L 673.00,406.34 L 671.98,407.29 L 670.13,409.01 L 669.24,409.84 L 667.61,411.33 L 666.82,412.04 L 665.39,413.30 L 664.70,413.90 L 663.44,414.92 L 662.21,415.89 L 660.13,417.14 L 659.14,417.66 L 657.35,418.02 L 656.47,418.10 L 654.74,417.59 L 653.86,417.24 L 651.96,415.88 L 650.97,415.10 L 648.66,412.92 L 648.05,412.32 L 646.71,410.98 L 644.50,408.73 L 641.94,406.13 L 636.79,401.34 L 634.21,399.00 L 628.96,394.73 L 626.32,392.65 L 620.90,388.84 L 618.16,386.99 L 612.51,383.62 L 609.64,381.99 L 603.68,379.01 L 600.65,377.57 L 594.30,374.94 L 591.08,373.67 L 584.28,371.36 L 573.50,368.20 L 563.50,365.55 L 441.57,365.25 L 436.18,365.23 L 425.98,365.20 L 420.98,365.19 L 411.55,365.15 L 406.93,365.14 L 398.25,365.10 L 394.00,365.08 L 386.06,365.04 L 382.17,365.02 L 374.95,364.98 L 371.43,364.96 L 364.91,364.91 L 361.74,364.89 L 355.92,364.84 L 353.09,364.81 L 347.95,364.75 L 345.46,364.73 L 340.98,364.67 L 338.82,364.64 L 334.98,364.57 L 333.14,364.54 L 329.94,364.47 L 328.42,364.43 L 325.84,364.36 L 324.62,364.32 L 322.64,364.24 L 321.73,364.20 L 320.34,364.12 L 319.72,364.08 L 318.91,363.99 L 318.32,363.85 L 318.13,363.70 L 317.80,363.09 L 317.65,362.75 L 317.39,361.84 L 317.00,358.56 L 317.00,357.70 L 317.21,356.15 L 317.37,355.37 L 318.00,353.73 L 318.37,352.86 L 319.56,350.81 L 319.89,350.26 L 320.69,349.02 L 322.10,346.93 L 323.52,344.87 L 326.82,340.35 L 328.52,338.07 L 332.12,333.44 L 333.92,331.15 L 337.47,326.85 L 338.34,325.81 L 340.01,323.88 L 342.36,321.25 L 346.25,317.00 L 453.88,317.01 L 458.07,317.01 L 466.17,317.01 L 470.18,317.02 L 477.91,317.03 L 481.72,317.03 L 489.06,317.05 L 492.67,317.06 L 499.59,317.08 L 503.00,317.09 L 509.50,317.12 L 512.70,317.14 L 518.76,317.17 L 521.73,317.19 L 527.34,317.22 L 530.08,317.24 L 535.22,317.29 L 537.73,317.31 L 542.38,317.36 L 544.64,317.38 L 548.80,317.44 L 550.81,317.46 L 554.45,317.52 L 556.21,317.55 L 559.32,317.61 L 560.81,317.64 L 563.37,317.71 L 564.59,317.74 L 566.60,317.81 L 567.53,317.85 L 568.97,317.93 L 570.46,318.04 L 573.83,318.43 L 580.58,319.52 L 583.96,320.12 L 590.71,321.62 L 594.08,322.41 L 600.77,324.31 L 604.10,325.30 L 610.67,327.56 L 613.94,328.74 L 620.36,331.36 L 623.54,332.71 L 629.75,335.67 L 632.82,337.19 L 638.76,340.46 L 647.33,345.72 L 648.55,346.52 L 650.82,347.89 L 651.91,348.53 L 653.83,349.52 L 654.73,349.97 L 656.17,350.52 L 657.64,350.79 L 657.79,350.77 L 658.47,350.37 L 658.86,350.11 L 660.00,349.26 L 660.62,348.79 L 662.16,347.56 L 662.97,346.89 L 664.84,345.32 L 665.82,344.49 L 667.97,342.63 L 669.08,341.66 L 671.46,339.55 L 679.14,332.57 L 682.44,329.51 L 688.75,323.67 L 691.86,320.79 L 697.78,315.30 L 700.70,312.60 L 706.25,307.45 L 708.99,304.91 L 714.19,300.09 L 716.74,297.73 L 721.60,293.22 L 723.98,291.01 L 728.50,286.82 L 730.72,284.76 L 734.92,280.86 L 736.98,278.95 L 740.86,275.33 L 742.77,273.56 L 746.36,270.22 L 748.12,268.58 L 751.42,265.50 L 753.04,264.00 L 756.07,261.17 L 757.55,259.79 L 760.31,257.20 L 761.67,255.93 L 764.18,253.57 L 765.41,252.42 L 767.69,250.28 L 768.79,249.23 L 770.84,247.30 L 771.84,246.35 L 773.68,244.61 L 774.57,243.76 L 776.20,242.20 L 776.99,241.44 L 778.43,240.05 L 779.82,238.71 L 782.09,236.48 L 783.14,235.44 L 784.79,233.75 L 785.55,232.97 L 786.69,231.73 L 787.20,231.16 L 787.91,230.29 L 788.22,229.89 L 788.61,229.28 L 789.00,228.04 L 789.00,227.52 L 788.51,226.26 L 788.18,225.58 L 787.02,223.98 L 786.35,223.14 L 784.49,221.19 L 783.47,220.17 L 780.88,217.84 L 779.50,216.63 L 776.17,213.91 L 774.41,212.50 L 770.31,209.37 L 768.16,207.75 L 763.26,204.17 L 755.00,198.31 L 750.79,195.36 L 742.15,189.74 L 737.80,186.97 L 728.88,181.72 L 724.39,179.14 L 715.23,174.25 L 710.62,171.86 L 701.23,167.36 L 696.51,165.15 L 686.93,161.04 L 682.11,159.03 L 672.36,155.32 L 667.47,153.51 L 657.57,150.19 L 652.61,148.59 L 642.60,145.68 L 637.59,144.28 L 627.49,141.80 L 622.43,140.61 L 612.27,138.55 L 607.18,137.57 L 596.98,135.94 L 591.88,135.18 L 581.67,134.00 L 576.57,133.46 L 566.38,132.72 L 561.29,132.41 L 551.15,132.12 L 546.08,132.04 L 536.01,132.21 L 521.00,133.01 L 514.27,133.53 L 500.84,135.12 L 494.13,136.00 L 480.78,138.32 L 474.13,139.56 L 460.92,142.58 L 454.34,144.18 L 441.33,147.89 L 434.86,149.83 L 422.10,154.21 L 415.76,156.48 L 403.30,161.53 L 397.11,164.13 L 385.01,169.81 L 367.32,179.04 L 360.88,182.64 L 348.37,190.35 L 342.17,194.29 L 330.19,202.66 L 324.26,206.92 L 312.83,215.93 L 307.18,220.51 L 296.33,230.12 L 290.98,235.00 L 280.75,245.20 L 275.72,250.36 L 266.13,261.10 L 261.43,266.54 L 252.52,277.80 L 239.97,295.25 L 238.84,296.91 L 236.96,299.77 L 236.07,301.12 L 234.65,303.41 L 233.99,304.49 L 232.98,306.30 L 232.53,307.15 L 231.91,308.57 L 231.64,309.24 L 231.38,310.35 L 231.28,310.88 L 231.34,311.77 L 231.40,312.20 L 231.74,312.96 L 232.54,314.04 L 232.94,314.48 L 233.90,315.09 L 234.19,315.23 L 234.91,315.44 L 235.30,315.54 L 236.31,315.68 L 236.85,315.75 L 238.23,315.85 L 238.98,315.89 L 240.81,315.94 L 241.80,315.97 L 244.19,315.99 L 248.48,316.00 L 249.51,316.00 L 251.36,316.02 L 252.25,316.02 L 253.84,316.04 L 255.36,316.05 L 257.79,315.99 L 258.92,315.93 L 260.76,315.60 L 261.64,315.38 L 263.18,314.60 L 263.94,314.14 L 265.47,312.75 L 266.26,311.96 L 268.05,309.77 L 268.53,309.17 L 269.59,307.79 L 270.13,307.07 L 271.35,305.43 L 271.98,304.57 L 273.40,302.66 L 275.79,299.45 L 280.06,293.75 L 289.04,282.85 L 293.59,277.48 L 303.13,267.26 L 307.97,262.23 L 318.03,252.70 L 323.13,248.02 L 333.70,239.19 L 339.05,234.86 L 350.10,226.75 L 355.68,222.78 L 367.18,215.39 L 372.98,211.79 L 384.89,205.14 L 390.90,201.92 L 403.21,196.02 L 409.41,193.17 L 422.08,188.05 L 428.46,185.58 L 441.46,181.24 L 448.01,179.17 L 461.32,175.61 L 468.01,173.94 L 481.61,171.19 L 488.44,169.92 L 502.28,168.00 L 509.23,167.14 L 523.30,166.04 L 530.36,165.60 L 544.62,165.35 L 566.21,165.94 L 573.31,166.34 L 587.39,167.80 L 594.41,168.63 L 608.29,170.94 L 615.20,172.20 L 628.83,175.34 L 635.61,177.01 L 648.95,180.98 L 655.58,183.07 L 668.59,187.84 L 675.05,190.33 L 687.69,195.90 L 693.96,198.79 L 706.18,205.15 L 724.00,215.55 L 725.03,216.20 L 726.92,217.39 L 727.83,217.97 L 729.48,219.01 L 731.08,220.03 L 733.64,221.71 L 734.82,222.50 L 736.65,223.82 L 737.48,224.44 L 738.70,225.50 L 739.25,226.01 L 739.98,226.93 L 740.30,227.38 L 740.67,228.28 L 740.82,228.73 L 740.95,229.72 L 741.00,231.42 L 741.00,232.50 L 740.76,234.12 L 740.65,234.53 L 740.22,235.38 L 739.97,235.83 L 739.19,236.84 L 738.74,237.39 L 737.50,238.70 L 736.81,239.41 L 734.99,241.15 L 734.00,242.09 L 731.50,244.40 L 730.83,245.01 L 729.34,246.37 L 726.88,248.62 L 725.76,249.65 L 723.72,251.50 L 722.74,252.39 L 720.95,254.00 L 720.08,254.77 L 718.50,256.13 L 717.73,256.79 L 716.34,257.92 L 714.98,258.99 L 712.65,260.47 L 711.53,261.10 L 709.49,261.73 L 708.48,261.95 L 706.46,261.80 L 705.42,261.63 L 703.15,260.75 L 701.96,260.23 L 699.18,258.68 L 698.44,258.26 L 696.82,257.29 L 694.15,255.67 L 689.58,252.89 L 680.27,247.75 L 675.60,245.25 L 666.09,240.64 L 661.31,238.40 L 651.59,234.33 L 646.71,232.37 L 636.79,228.84 L 631.80,227.14 L 621.68,224.15 L 616.60,222.72 L 606.28,220.27 L 601.10,219.11 L 590.59,217.21 L 574.62,214.96 L 572.04,214.66 L 567.13,214.18 L 564.70,213.95 L 560.03,213.61 L 555.41,213.30 L 546.56,213.09 L 542.15,213.06 L 533.27,213.41 L 531.02,213.53 L 526.40,213.87 L 519.22,214.54 L 515.09,214.97 L 506.89,216.08 L 502.80,216.67 L 494.69,218.11 L 490.65,218.87 L 482.64,220.64 L 478.65,221.56 L 470.76,223.64 L 466.82,224.72 L 459.05,227.12 L 455.18,228.35 L 447.53,231.06 L 443.72,232.46 L 436.21,235.47 L 432.47,237.02 L 425.11,240.34 L 421.45,242.03 L 414.24,245.65 L 410.65,247.50 L 403.61,251.42 L 400.10,253.41 L 393.23,257.61 L 389.81,259.75 L 383.12,264.25 L 379.80,266.53 L 373.29,271.30 L 370.06,273.73 L 363.76,278.78 L 360.63,281.35 L 354.53,286.68 L 345.62,294.98 L 343.55,296.99 L 339.71,300.84 L 337.83,302.74 L 334.31,306.43 L 330.86,310.09 L 324.66,317.27 L 321.64,320.89 L 315.88,328.48 L 314.44,330.43 L 311.55,334.52 L 307.14,341.01 L 305.00,344.24 L 301.07,350.38 L 299.16,353.42 L 295.65,359.29 L 293.94,362.20 L 290.79,367.91 L 289.25,370.76 L 286.38,376.45 L 284.97,379.31 L 282.34,385.09 L 281.04,388.01 L 278.57,394.02 L 277.35,397.07 L 274.98,403.43 L 271.49,413.50 L 270.01,417.95 L 267.37,426.84 L 266.11,431.28 L 263.91,440.15 L 262.87,444.58 L 261.11,453.42 L 260.28,457.84 L 258.96,466.64 L 258.35,471.04 L 257.47,479.80 L 257.09,484.17 L 256.65,492.88 L 256.48,497.22 L 256.49,505.87 L 256.99,518.75 L 257.33,523.94 L 258.34,534.07 L 258.91,539.10 L 260.39,548.95 L 261.19,553.85 L 263.16,563.48 L 264.20,568.27 L 266.66,577.73 L 267.95,582.44 L 270.92,591.77 L 272.47,596.43 L 275.96,605.70 L 277.78,610.33 L 281.81,619.58 L 288.47,633.50 L 290.60,637.68 L 294.98,645.73 L 297.20,649.70 L 301.79,657.34 L 304.12,661.12 L 308.93,668.39 L 311.37,671.98 L 316.43,678.89 L 318.99,682.31 L 324.30,688.90 L 327.00,692.15 L 332.59,698.44 L 335.42,701.54 L 341.31,707.55 L 350.50,716.26 L 355.93,721.17 L 367.09,730.29 L 372.73,734.74 L 384.32,742.92 L 390.17,746.90 L 402.21,754.16 L 408.28,757.67 L 420.76,764.01 L 427.06,767.07 L 440.00,772.49 L 446.53,775.08 L 459.95,779.59 L 466.71,781.74 L 480.61,785.34 L 502.00,789.73 L 503.76,790.03 L 506.86,790.53 L 508.36,790.77 L 511.13,791.16 L 513.86,791.52 L 519.34,791.96 L 520.80,792.06 L 524.00,792.19 L 525.68,792.25 L 529.51,792.33 L 531.53,792.37 L 536.23,792.41 L 537.46,792.41 L 540.15,792.43 L 544.50,792.44 L 546.30,792.44 L 549.64,792.44 L 551.27,792.44 L 554.31,792.42 L 557.29,792.40 L 562.51,792.29 L 565.02,792.22 L 569.58,792.00 L 571.80,791.86 L 576.00,791.49 L 578.09,791.28 L 582.27,790.72 L 584.39,790.41 L 588.87,789.64 L 591.18,789.22 L 596.28,788.20 L 597.61,787.93 L 600.45,787.33 L 605.00,786.35 L 608.75,785.54 L 616.31,783.63 L 620.09,782.64 L 627.68,780.38 L 631.47,779.21 L 639.02,776.63 L 642.78,775.30 L 650.25,772.42 L 653.96,770.94 L 661.28,767.77 L 664.92,766.16 L 672.03,762.73 L 675.56,760.99 L 682.41,757.33 L 692.34,751.60 L 693.50,750.89 L 695.51,749.69 L 696.46,749.13 L 698.11,748.19 L 698.90,747.74 L 700.27,747.03 L 700.92,746.70 L 702.08,746.18 L 703.19,745.71 L 705.05,745.24 L 707.86,745.00 L 709.01,745.00 L 710.78,745.23 L 711.23,745.34 L 712.17,745.74 L 712.65,745.98 L 713.78,746.71 L 714.38,747.12 L 715.84,748.28 L 716.62,748.92 L 718.55,750.60 L 719.58,751.51 L 722.12,753.81 L 722.80,754.43 L 724.29,755.80 L 726.77,758.06 L 728.45,759.61 L 731.25,762.19 L 732.56,763.41 L 734.67,765.41 L 735.66,766.35 L 737.19,767.88 L 737.89,768.60 L 738.94,769.78 L 739.40,770.33 L 740.05,771.26 L 740.33,771.70 L 740.67,772.50 L 741.00,774.89 L 741.00,776.02 L 740.62,777.82 L 740.47,778.25 L 739.98,779.10 L 739.70,779.53 L 738.90,780.42 L 738.45,780.88 L 737.26,781.88 L 736.61,782.41 L 734.95,783.60 L 734.06,784.23 L 731.87,785.69 L 727.90,788.26 L 723.55,791.04 L 714.67,796.31 L 710.21,798.89 L 701.15,803.72 L 696.60,806.09 L 687.38,810.49 L 682.75,812.63 L 673.39,816.59 L 668.70,818.51 L 659.22,822.00 L 654.48,823.69 L 644.92,826.72 L 640.13,828.18 L 630.51,830.73 L 616.05,834.01 L 613.30,834.56 L 608.14,835.54 L 605.59,836.00 L 600.74,836.82 L 595.93,837.60 L 586.72,838.76 L 582.10,839.27 L 572.48,839.98 L 570.00,840.14 L 564.80,840.38 L 556.50,840.67 L 551.22,840.82 L 540.78,840.79 L 535.58,840.73 L 525.29,840.28 L 520.16,840.01 L 510.03,839.14 L 504.98,838.66 L 495.00,837.37 L 490.03,836.68 L 480.21,834.98 L 475.31,834.07 L 465.65,831.95 L 460.84,830.84 L 451.33,828.30 L 446.60,826.98 L 437.25,824.02 L 432.60,822.49 L 423.42,819.12 L 418.85,817.38 L 409.83,813.59 L 405.34,811.65 L 396.48,807.44 L 392.07,805.29 L 383.38,800.66 L 379.06,798.30 L 370.53,793.26 L 366.29,790.69 L 357.93,785.24 L 353.78,782.46 L 345.59,776.59 L 333.50,767.33 L 330.78,765.15 L 325.16,760.32 L 322.32,757.83 L 316.55,752.46 L 313.65,749.72 L 307.82,743.92 L 304.91,740.98 L 299.13,734.86 L 296.25,731.77 L 290.62,725.45 L 287.84,722.27 L 282.46,715.84 L 279.81,712.62 L 274.79,706.20 L 267.76,696.69 L 263.01,690.00 L 248.66,690.00 L 247.08,690.00 L 244.41,690.01 L 243.14,690.02 L 241.04,690.06 L 240.05,690.08 L 238.43,690.15 L 237.67,690.20 L 236.47,690.31 L 235.91,690.37 L 235.03,690.54 L 234.62,690.63 L 233.99,690.86 L 232.65,691.83 L 232.18,692.35 L 231.54,693.45 L 231.28,694.02 L 231.10,695.33 L 231.08,696.03 L 231.43,697.69 L 231.69,698.58 L 232.65,700.74 L 233.21,701.89 L 234.84,704.68 L 235.29,705.42 L 236.33,707.05 L 236.88,707.89 L 238.11,709.73 L 238.75,710.67 L 240.19,712.73 L 240.93,713.79 L 242.58,716.10 L 243.42,717.28 L 245.28,719.84 L 248.33,724.00 L 251.78,728.69 L 259.02,737.80 L 262.69,742.31 L 270.35,751.05 L 274.23,755.37 L 282.30,763.73 L 286.39,767.86 L 294.84,775.82 L 299.11,779.75 L 307.94,787.31 L 312.39,791.04 L 321.56,798.17 L 326.19,801.69 L 335.69,808.39 L 340.47,811.69 L 350.28,817.95 L 355.22,821.03 L 365.32,826.83 L 370.40,829.68 L 380.77,835.02 L 385.98,837.63 L 396.60,842.49 L 401.94,844.86 L 412.79,849.23 L 418.24,851.35 L 429.30,855.21 L 434.86,857.08 L 446.11,860.43 L 451.76,862.04 L 463.19,864.86 L 480.50,868.49 L 483.43,869.03 L 488.96,869.98 L 491.69,870.43 L 496.90,871.22 L 502.05,871.96 L 511.94,873.00 L 516.89,873.46 L 527.13,873.99 L 529.76,874.10 L 535.26,874.23 L 544.00,874.31 L 547.04,874.32 L 552.61,874.28 L 555.33,874.24 L 560.41,874.12 L 562.90,874.04 L 567.65,873.81 L 570.00,873.69 L 574.59,873.35 L 579.17,872.98 L 588.60,871.84 L 591.03,871.52 L 596.18,870.75 L 604.50,869.42 L 608.52,868.75 L 616.52,867.20 L 620.51,866.40 L 628.47,864.58 L 632.44,863.63 L 640.33,861.55 L 644.27,860.47 L 652.11,858.12 L 656.01,856.91 L 663.77,854.30 L 667.64,852.97 L 675.32,850.10 L 679.15,848.64 L 686.73,845.52 L 690.51,843.93 L 698.00,840.57 L 701.73,838.85 L 709.11,835.24 L 712.78,833.41 L 720.04,829.56 L 723.66,827.61 L 730.79,823.52 L 734.34,821.45 L 741.34,817.14 L 744.83,814.95 L 751.68,810.41 L 755.09,808.11 L 761.80,803.34 L 765.13,800.93 L 771.68,795.94 L 781.30,788.22 L 782.14,787.53 L 783.55,786.33 L 784.21,785.76 L 785.32,784.77 L 785.84,784.30 L 786.67,783.49 L 787.05,783.10 L 787.65,782.42 L 788.18,781.76 L 788.68,780.66 L 788.80,779.02 L 788.77,778.76 L 788.47,778.07 L 788.27,777.68 L 787.57,776.71 L 787.17,776.18 L 786.04,774.86 L 785.42,774.16 L 783.80,772.45 L 782.92,771.54 L 780.75,769.38 L 779.59,768.23 L 776.82,765.57 L 775.36,764.16 L 771.93,760.93 L 766.00,755.39 L 763.12,752.71 L 757.58,747.57 L 754.85,745.03 L 749.61,740.15 L 747.02,737.75 L 742.06,733.14 L 739.61,730.87 L 734.93,726.52 L 732.62,724.38 L 728.20,720.28 L 726.03,718.26 L 721.87,714.40 L 719.82,712.51 L 715.92,708.89 L 713.99,707.11 L 710.33,703.72 L 708.53,702.05 L 705.11,698.88 L 703.43,697.33 L 700.23,694.37 L 698.66,692.93 L 695.69,690.18 L 694.23,688.84 L 691.47,686.29 L 690.11,685.05 L 687.56,682.70 L 686.31,681.55 L 683.95,679.39 L 681.64,677.27 L 677.58,673.57 L 675.64,671.80 L 672.27,668.75 L 670.66,667.31 L 667.92,664.86 L 666.62,663.70 L 664.44,661.80 L 663.42,660.90 L 661.74,659.48 L 660.96,658.83 L 659.72,657.83 L 659.15,657.38 L 658.29,656.76 L 657.90,656.49 L 657.35,656.17 L 656.82,656.00 L 656.53,656.00 L 655.44,656.37 L 654.83,656.61 L 653.25,657.38 L 652.42,657.80 L 650.54,658.87 L 647.61,660.69 L 645.48,662.10 L 640.85,664.87 L 638.48,666.24 L 633.47,668.91 L 630.92,670.22 L 625.63,672.74 L 622.97,673.97 L 617.51,676.29 L 614.78,677.42 L 609.27,679.50 L 606.53,680.51 L 601.08,682.30 L 598.38,683.16 L 593.10,684.62 L 585.50,686.38 L 583.40,686.80 L 579.35,687.50 L 577.27,687.82 L 572.66,688.35 L 571.43,688.48 L 568.73,688.70 L 567.33,688.80 L 564.21,688.99 L 562.59,689.08 L 558.94,689.24 L 557.05,689.31 L 552.78,689.44 L 550.56,689.50 L 545.57,689.60 L 542.97,689.65 L 537.15,689.73 L 534.13,689.76 L 527.38,689.82 L 525.63,689.84 L 521.94,689.86 L 520.06,689.87 L 516.10,689.89 L 514.08,689.90 L 509.84,689.92 L 507.69,689.93 L 503.16,689.94 L 500.85,689.95 L 496.01,689.96 L 493.56,689.96 L 488.40,689.97 L 485.78,689.98 L 480.29,689.98 L 477.51,689.98 L 471.68,689.99 L 468.72,689.99 L 462.53,689.99 L 452.83,689.99 L 346.17,690.00 L 340.44,683.75 L 340.05,683.32 L 339.11,682.25 L 338.62,681.68 L 337.51,680.38 L 336.38,679.03 L 333.78,675.83 L 325.81,665.55 L 316.91,653.61 L 317.21,648.05 L 317.50,642.50 L 440.00,641.94 L 444.23,641.92 L 452.28,641.88 L 456.24,641.86 L 463.75,641.83 L 467.44,641.82 L 474.43,641.78 L 477.86,641.77 L 484.35,641.74 L 487.54,641.72 L 493.56,641.69 L 496.51,641.68 L 502.08,641.65 L 504.80,641.63 L 509.94,641.59 L 512.45,641.58 L 517.17,641.54 L 519.48,641.52 L 523.81,641.48 L 525.93,641.46 L 529.90,641.41 L 531.84,641.38 L 535.45,641.33 L 537.22,641.30 L 540.51,641.24 L 542.12,641.21 L 545.11,641.14 L 546.57,641.10 L 549.28,641.02 L 551.92,640.94 L 556.45,640.73 L 558.60,640.63 L 562.28,640.37 L 564.03,640.24 L 567.04,639.92 L 568.47,639.76 L 570.97,639.37 L 572.17,639.17 L 574.34,638.70 L 576.46,638.21 L 580.42,636.97 L 581.45,636.63 L 583.65,635.88 L 587.35,634.62 L 590.20,633.67 L 595.85,631.46 L 598.65,630.31 L 604.19,627.73 L 606.94,626.40 L 612.31,623.48 L 614.98,621.98 L 620.16,618.74 L 622.72,617.09 L 627.66,613.56 L 630.10,611.76 L 634.76,607.97 L 637.05,606.05 L 641.39,602.02 L 647.49,595.75 L 648.16,595.01 L 649.28,593.78 L 649.82,593.21 L 650.71,592.29 L 651.14,591.87 L 651.88,591.22 L 652.24,590.92 L 652.90,590.50 L 653.55,590.12 L 654.91,589.85 L 657.60,589.86 L 658.17,589.89 L 659.23,590.06 L 659.79,590.19 L 661.21,590.89 L 661.61,591.12 L 662.57,591.76 L 663.08,592.12 L 664.30,593.04 L 664.95,593.55 L 666.50,594.82 L 667.32,595.50 L 669.27,597.17 L 670.30,598.06 L 672.70,600.18 L 673.97,601.30 L 676.89,603.93 L 678.43,605.32 L 681.94,608.51 L 683.77,610.19 L 687.93,614.00 L 690.10,616.00 L 694.97,620.49 L 696.24,621.65 L 698.92,624.13 L 700.28,625.39 L 703.16,628.04 L 704.62,629.40 L 707.71,632.25 L 709.28,633.71 L 712.58,636.76 L 714.26,638.31 L 717.79,641.58 L 723.34,646.72 L 727.54,650.61 L 736.39,658.84 L 740.86,663.01 L 750.03,671.60 L 754.63,675.92 L 763.86,684.62 L 768.45,688.96 L 777.48,697.51 L 781.94,701.74 L 790.48,709.89 L 792.57,711.88 L 796.62,715.76 L 798.62,717.68 L 802.46,721.37 L 804.35,723.18 L 807.94,726.65 L 809.71,728.36 L 813.02,731.57 L 814.64,733.14 L 817.64,736.07 L 821.75,740.12 L 824.55,742.88 L 829.61,747.86 L 832.06,750.26 L 836.42,754.55 L 838.52,756.62 L 842.22,760.29 L 843.99,762.06 L 847.06,765.18 L 848.52,766.68 L 851.00,769.32 L 852.17,770.59 L 854.09,772.82 L 854.99,773.89 L 856.39,775.77 L 857.02,776.67 L 857.93,778.27 L 858.33,779.05 L 858.79,780.44 L 858.96,781.11 L 859.00,782.36 L 858.97,782.98 L 858.63,784.15 L 858.41,784.73 L 857.72,785.90 L 857.33,786.49 L 856.32,787.71 L 855.78,788.34 L 854.49,789.69 L 853.82,790.39 L 852.29,791.94 L 849.75,794.56 L 845.25,799.31 L 835.94,808.48 L 831.24,813.01 L 821.55,821.70 L 816.65,825.98 L 806.59,834.19 L 801.51,838.23 L 791.10,845.94 L 785.86,849.74 L 775.12,856.94 L 769.72,860.48 L 758.67,867.18 L 753.12,870.46 L 741.79,876.62 L 736.10,879.64 L 724.51,885.27 L 718.68,888.02 L 706.85,893.11 L 700.91,895.59 L 688.86,900.12 L 682.81,902.32 L 670.56,906.29 L 664.41,908.20 L 651.98,911.60 L 645.74,913.22 L 633.15,916.03 L 626.84,917.36 L 614.11,919.58 L 607.73,920.61 L 594.89,922.23 L 575.52,923.96 L 573.70,924.08 L 569.38,924.28 L 567.13,924.37 L 562.15,924.52 L 559.60,924.59 L 554.21,924.69 L 551.48,924.74 L 545.93,924.79 L 543.15,924.80 L 537.69,924.80 L 534.99,924.79 L 529.87,924.72 L 527.37,924.68 L 522.85,924.56 L 520.68,924.50 M 402.39,624.45 L 400.07,621.99 L 395.58,616.52 L 393.36,613.70 L 389.09,607.57 L 386.99,604.44 L 383.01,597.77 L 381.06,594.38 L 377.42,587.28 L 375.65,583.68 L 372.40,576.26 L 370.83,572.52 L 368.04,564.89 L 366.70,561.06 L 364.40,553.33 L 361.58,541.73 L 361.08,539.33 L 360.25,533.92 L 359.86,531.14 L 359.25,525.13 L 358.97,522.08 L 358.59,515.69 L 358.42,512.46 L 358.26,505.89 L 358.21,502.61 L 358.28,496.07 L 358.35,492.82 L 358.65,486.52 L 358.83,483.41 L 359.37,477.56 L 360.45,469.50 L 361.12,465.54 L 362.84,457.71 L 363.76,453.82 L 365.97,446.14 L 367.14,442.32 L 369.84,434.83 L 371.25,431.11 L 374.42,423.83 L 376.06,420.21 L 379.69,413.17 L 381.56,409.68 L 385.63,402.91 L 387.72,399.56 L 392.22,393.09 L 399.45,383.75 L 405.04,377.00 L 434.95,377.00 L 437.03,377.00 L 440.79,377.00 L 442.61,377.00 L 445.90,377.01 L 447.49,377.02 L 450.33,377.04 L 451.69,377.05 L 454.12,377.10 L 455.28,377.12 L 457.32,377.19 L 458.30,377.23 L 459.99,377.34 L 460.80,377.39 L 462.18,377.54 L 462.83,377.61 L 463.92,377.80 L 464.95,378.00 L 466.30,378.58 L 466.87,378.89 L 467.50,379.73 L 467.76,380.19 L 467.94,381.35 L 468.00,383.50 L 468.00,384.25 L 467.73,385.52 L 467.51,386.16 L 466.53,387.55 L 466.23,387.93 L 465.42,388.78 L 464.97,389.23 L 463.86,390.27 L 463.26,390.82 L 461.79,392.11 L 459.14,394.38 L 455.77,397.24 L 449.57,403.09 L 446.55,406.04 L 441.03,412.12 L 438.36,415.19 L 433.49,421.55 L 431.14,424.77 L 426.90,431.46 L 424.85,434.86 L 421.19,441.94 L 419.43,445.54 L 416.33,453.08 L 414.84,456.91 L 412.25,464.95 L 408.92,477.63 L 408.53,479.35 L 407.90,483.09 L 407.60,485.01 L 407.16,489.06 L 406.77,493.18 L 406.56,501.90 L 406.55,506.26 L 407.11,514.85 L 407.30,516.95 L 407.83,520.97 L 408.83,526.65 L 409.48,529.70 L 411.26,536.35 L 412.21,539.71 L 414.43,546.50 L 415.57,549.85 L 418.01,556.17 L 418.63,557.69 L 419.87,560.53 L 421.70,564.42 L 422.73,566.46 L 425.09,570.63 L 426.31,572.73 L 429.03,576.95 L 430.42,579.05 L 433.42,583.24 L 434.95,585.32 L 438.18,589.39 L 439.81,591.40 L 443.19,595.27 L 444.90,597.18 L 448.38,600.78 L 450.12,602.54 L 453.62,605.78 L 458.84,610.17 L 459.76,610.88 L 461.50,612.24 L 462.34,612.90 L 463.80,614.05 L 464.48,614.59 L 465.51,615.40 L 466.37,616.10 L 466.54,616.25 L 466.81,616.81 L 466.93,617.12 L 467.10,617.96 L 467.25,618.85 L 467.27,621.05 L 467.24,622.15 L 466.91,624.24 L 466.81,624.72 L 466.54,625.53 L 466.06,626.43 L 465.92,626.60 L 465.46,626.89 L 465.19,627.02 L 464.37,627.25 L 463.90,627.36 L 462.56,627.53 L 461.82,627.60 L 459.83,627.73 L 458.74,627.78 L 455.95,627.86 L 454.44,627.90 L 450.70,627.95 L 449.70,627.96 L 447.50,627.97 L 446.36,627.98 L 443.87,627.99 L 442.59,627.99 L 439.80,628.00 L 435.25,628.00 L 405.74,628.00 L 402.39,624.45 Z" fill="#ffffff"/>
</g>
</svg>