<?xml version="1.0" encoding="utf-8"?>
<svg xmlns="http://www.w3.org/2000/svg" width="16" height="16" fill="#292929" class="bi bi-eye-fill" viewBox="0 0 16 16" xmlns:bx="https://boxy-svg.com">
  <defs>
    <bx:export>
      <bx:file format="svg" href="#object-0" path="Unbetitelt.svg"/>
      <bx:file format="svg" href="#object-1" path="Unbetitelt 2.svg"/>
      <bx:file format="svg" href="#object-2" path="Unbetitelt 3.svg"/>
    </bx:export>
  </defs>
  <path d="M14 1a1 1 0 0 1 1 1v12a1 1 0 0 1-1 1H2a1 1 0 0 1-1-1V2a1 1 0 0 1 1-1zM2 0a2 2 0 0 0-2 2v12a2 2 0 0 0 2 2h12a2 2 0 0 0 2-2V2a2 2 0 0 0-2-2z" id="object-0"/>
  <g transform="matrix(1, 0, 0, 1, -0.070053, 0.462347)">
    <path d="M 1.029 7.509 C 1.029 7.509 4.163 1.974 9.385 1.974 C 14.611 1.974 17.745 7.509 17.745 7.509 C 17.745 7.509 14.611 13.045 9.385 13.045 C 4.163 13.045 1.029 7.509 1.029 7.509 M 9.385 11.032 C 12.202 11.032 13.962 8.096 12.553 5.749 C 11.901 4.658 10.693 3.986 9.385 3.986 C 6.572 3.986 4.813 6.923 6.221 9.269 C 6.873 10.36 8.08 11.032 9.385 11.032" style="fill: rgb(255, 255, 255);" id="path-1"/>
    <path d="M 1.335 7.545 C 1.335 7.545 4.082 2.506 8.661 2.506 C 13.242 2.506 15.989 7.545 15.989 7.545 C 15.989 7.545 13.242 12.583 8.661 12.583 C 4.082 12.583 1.335 7.545 1.335 7.545 M 8.661 10.75 C 11.129 10.75 12.673 8.079 11.438 5.942 C 10.866 4.949 9.808 4.338 8.661 4.338 C 6.194 4.338 4.652 7.01 5.886 9.146 C 6.458 10.139 7.517 10.75 8.661 10.75" style="" id="object-1"/>
    <ellipse style="stroke: rgb(0, 0, 0); stroke-width: 0px; fill: rgb(255, 255, 255);" cx="8.662" cy="7.545" rx="3.797" ry="3.797"/>
    <path d="M 10.951 7.545 C 10.951 9.306 9.044 10.409 7.517 9.527 C 6.809 9.118 6.372 8.362 6.372 7.545 C 6.372 5.781 8.28 4.68 9.808 5.562 C 10.516 5.97 10.951 6.726 10.951 7.545" style="" id="object-2">
      <title>Pupille</title>
    </path>
  </g>
</svg>