<?xml version="1.0" encoding="utf-8"?>
<svg xmlns="http://www.w3.org/2000/svg" width="16" height="16" fill="#292929" class="bi bi-eye-fill" viewBox="0 0 16 16" xmlns:bx="https://boxy-svg.com">
  <defs>
    <bx:export>
      <bx:file format="svg" href="#object-0" path="Unbetitelt.svg"/>
    </bx:export>
  </defs>
  <path d="M14 1a1 1 0 0 1 1 1v12a1 1 0 0 1-1 1H2a1 1 0 0 1-1-1V2a1 1 0 0 1 1-1zM2 0a2 2 0 0 0-2 2v12a2 2 0 0 0 2 2h12a2 2 0 0 0 2-2V2a2 2 0 0 0-2-2z" id="object-0"/>
  <path d="M 0.959 7.971 C 0.959 7.971 4.093 2.436 9.315 2.436 C 14.541 2.436 17.675 7.971 17.675 7.971 C 17.675 7.971 14.541 13.507 9.315 13.507 C 4.093 13.507 0.959 7.971 0.959 7.971 M 9.315 11.494 C 12.132 11.494 13.892 8.558 12.483 6.211 C 11.831 5.12 10.623 4.448 9.315 4.448 C 6.502 4.448 4.743 7.385 6.151 9.731 C 6.803 10.822 8.01 11.494 9.315 11.494" style="fill: rgb(255, 255, 255); stroke-width: 1;" id="path-1"/>
  <ellipse style="stroke: rgb(0, 0, 0); stroke-width: 0; fill: rgb(255, 255, 255);" cx="8.592" cy="8.007" rx="3.797" ry="3.797"/>
  <path d="M 6.327 7.69 C 6.111 9.199 7.404 10.492 8.913 10.276 L 6.327 7.69 Z M 10.85 8.338 L 8.265 5.752 C 9.773 5.536 11.066 6.829 10.85 8.337 L 10.85 8.338 Z M 13.748 13.822 L 2.781 2.854 L 3.428 2.206 L 14.397 13.174 L 13.748 13.822 Z" style="stroke-width: 1;"/>
  <path d="M 11.185 12.527 L 9.707 11.048 C 7.384 11.879 5.031 9.882 5.474 7.455 C 5.505 7.284 5.55 7.114 5.61 6.95 L 3.722 5.063 C 2.163 6.451 1.303 8.028 1.303 8.028 C 1.303 8.028 4.051 13.065 8.63 13.065 C 9.508 13.063 10.379 12.88 11.185 12.527 M 6.074 3.529 C 6.881 3.176 7.751 2.993 8.63 2.991 C 13.209 2.991 15.957 8.028 15.957 8.028 C 15.957 8.028 15.096 9.604 13.538 10.993 L 11.649 9.104 C 12.48 6.781 10.484 4.43 8.057 4.873 C 7.885 4.905 7.716 4.949 7.552 5.007 L 6.074 3.529 Z" style="stroke-width: 1;"/>
</svg>